<svg xmlns="http://www.w3.org/2000/svg" viewBox="0 0 60 60"><defs><style>.cls-1{fill:none;}.cls-2{fill:#231916;}</style></defs><g id="Layer_2" data-name="Layer 2"><g id="레이어_1" data-name="레이어 1"><rect class="cls-1" width="60" height="60"/><path class="cls-2" d="M16.68,28.92a2.6,2.6,0,0,1,.61,1.76,3,3,0,0,1-.37,1.47,2.51,2.51,0,0,1-1.05,1,3.47,3.47,0,0,1-1.58.35,5.28,5.28,0,0,1-1.41-.2,3.91,3.91,0,0,1-1.18-.55l.52-1.15a4.62,4.62,0,0,0,1.06.45,3.42,3.42,0,0,0,1,.16,1.59,1.59,0,0,0,1.16-.4,1.5,1.5,0,0,0,.41-1.12,1.46,1.46,0,0,0-.4-1.07,1.5,1.5,0,0,0-1.08-.38,3.42,3.42,0,0,0-.76.09l-.54-.69,2.41-2.56h-3.6V24.86H17v1.21l-2,2A2.46,2.46,0,0,1,16.68,28.92Z"/><path class="cls-2" d="M19.45,32.43a6,6,0,0,1-.73-3.33,6.07,6.07,0,0,1,.72-3.34,2.52,2.52,0,0,1,2.22-1.06,2.54,2.54,0,0,1,2.23,1.06,6,6,0,0,1,.73,3.34,6,6,0,0,1-.73,3.33,2.51,2.51,0,0,1-2.22,1.06A2.51,2.51,0,0,1,19.45,32.43Zm3.38-.94a5.88,5.88,0,0,0,.36-2.39,5.7,5.7,0,0,0-.37-2.4A1.21,1.21,0,0,0,21.66,26a1.2,1.2,0,0,0-1.15.75,5.87,5.87,0,0,0-.37,2.4,5.85,5.85,0,0,0,.37,2.39,1.27,1.27,0,0,0,2.32,0Z"/><path class="cls-2" d="M26.78,32.43a6.07,6.07,0,0,1-.73-3.33,6,6,0,0,1,.73-3.34A2.51,2.51,0,0,1,29,24.7a2.53,2.53,0,0,1,2.23,1.06A6,6,0,0,1,32,29.1a6,6,0,0,1-.74,3.33A2.49,2.49,0,0,1,29,33.49,2.51,2.51,0,0,1,26.78,32.43Zm3.38-.94a5.68,5.68,0,0,0,.37-2.39,5.87,5.87,0,0,0-.37-2.4A1.23,1.23,0,0,0,29,26a1.22,1.22,0,0,0-1.15.75,5.9,5.9,0,0,0-.36,2.4,5.88,5.88,0,0,0,.36,2.39,1.21,1.21,0,0,0,1.16.76A1.2,1.2,0,0,0,30.16,31.49Z"/><path class="cls-2" d="M34.12,32.43a6,6,0,0,1-.73-3.33,6.07,6.07,0,0,1,.72-3.34,2.87,2.87,0,0,1,4.45,0,6,6,0,0,1,.73,3.34,6,6,0,0,1-.73,3.33,2.85,2.85,0,0,1-4.44,0Zm3.38-.94a5.88,5.88,0,0,0,.36-2.39,5.7,5.7,0,0,0-.37-2.4A1.21,1.21,0,0,0,36.33,26a1.2,1.2,0,0,0-1.15.75,5.9,5.9,0,0,0-.36,2.4,5.88,5.88,0,0,0,.36,2.39,1.27,1.27,0,0,0,2.32,0Z"/><path class="cls-2" d="M41.11,27.9a.83.83,0,0,1-.23-.63.84.84,0,0,1,.23-.64.91.91,0,0,1,.66-.23.89.89,0,0,1,.65.23.82.82,0,0,1,.24.63.86.86,0,0,1-.24.64.88.88,0,0,1-.65.22A.91.91,0,0,1,41.11,27.9Zm0,3.75a.83.83,0,0,1-.23-.63.84.84,0,0,1,.23-.64.91.91,0,0,1,.66-.23.89.89,0,0,1,.65.23.82.82,0,0,1,.24.63.86.86,0,0,1-.24.64.88.88,0,0,1-.65.22A.91.91,0,0,1,41.11,31.65Z"/><path class="cls-2" d="M47.19,24.86v8.48H45.8v-7L44,26.94l-.4-1.15L46,24.86Z"/></g></g></svg>