<svg xmlns="http://www.w3.org/2000/svg" xmlns:xlink="http://www.w3.org/1999/xlink" viewBox="0 0 53.9 32.18"><defs><style>.cls-1{fill:none;}.cls-2{clip-path:url(#clip-path);}.cls-3{fill:#010100;}</style><clipPath id="clip-path" transform="translate(-3 -13.96)"><rect class="cls-1" width="60" height="60"/></clipPath></defs><g id="Layer_2" data-name="Layer 2"><g id="레이어_1" data-name="레이어 1"><g class="cls-2"><path class="cls-3" d="M56.2,46.1H56c-20-5-32.2-5-52.1,0a.61.61,0,0,1-.6-.1.91.91,0,0,1-.3-.7V14.7a.86.86,0,0,1,.3-.6.66.66,0,0,1,.6-.1c20,5,32.2,5,52.1,0a.61.61,0,0,1,.6.1.71.71,0,0,1,.3.6V45.4a.86.86,0,0,1-.3.6,1,1,0,0,1-.4.1M30,40.9c8,0,15.9,1.2,25.5,3.5V15.6c-19.2,4.7-31.8,4.7-51,0V44.4A102.32,102.32,0,0,1,30,40.9" transform="translate(-3 -13.96)"/><polygon class="cls-3" points="14.4 11.84 14.4 20.34 13 20.34 13 13.24 11 13.94 10.6 12.84 13.2 11.94 14.4 11.94 14.4 11.84"/><path class="cls-3" d="M21.1,34.1a2.72,2.72,0,0,1-1-.8,2.45,2.45,0,0,1-.4-1.2,2.11,2.11,0,0,1,.5-1.3,2.54,2.54,0,0,1,1.3-.9,1.59,1.59,0,0,1-1-.8,3,3,0,0,1-.5-1.3,2.66,2.66,0,0,1,.3-1.2,1.76,1.76,0,0,1,.9-.8,2.9,2.9,0,0,1,1.4-.3,3.19,3.19,0,0,1,1.4.3,1.76,1.76,0,0,1,.9.8,2.38,2.38,0,0,1,.3,1.2,1.59,1.59,0,0,1-.4,1.2,2.54,2.54,0,0,1-1,.8,2.87,2.87,0,0,1,1.3.8,2.39,2.39,0,0,1,.5,1.4,2,2,0,0,1-.4,1.3,2.54,2.54,0,0,1-1,.8,3.65,3.65,0,0,1-1.5.3,3.51,3.51,0,0,1-1.6-.3m2.7-1.2a1,1,0,0,0,.4-.9,1.22,1.22,0,0,0-.4-.9,3.46,3.46,0,0,0-1.2-.7,3,3,0,0,0-1.1.7,1.22,1.22,0,0,0-.4.9,1,1,0,0,0,.4.9,1.8,1.8,0,0,0,1.1.3,2.13,2.13,0,0,0,1.2-.3m-.3-4.1a1.14,1.14,0,0,0,.3-.8,1,1,0,0,0-.3-.8,1.5,1.5,0,0,0-1.8,0,1.22,1.22,0,0,0,0,1.6,3.49,3.49,0,0,0,.9.6,2.31,2.31,0,0,0,.9-.6" transform="translate(-3 -13.96)"/><path class="cls-3" d="M27.1,33.3a5.79,5.79,0,0,1-.7-3.3,5.79,5.79,0,0,1,.7-3.3,2.75,2.75,0,0,1,4.4,0,5.79,5.79,0,0,1,.7,3.3,5.79,5.79,0,0,1-.7,3.3,2.53,2.53,0,0,1-2.2,1.1,2.41,2.41,0,0,1-2.2-1.1m3.3-.9a6.53,6.53,0,0,0,.4-2.4,4.94,4.94,0,0,0-.4-2.4c-.3-.5-.6-.8-1.1-.8a1.17,1.17,0,0,0-1.1.8,6.53,6.53,0,0,0-.4,2.4,4.94,4.94,0,0,0,.4,2.4c.3.5.6.8,1.1.8s.8-.3,1.1-.8" transform="translate(-3 -13.96)"/><path class="cls-3" d="M33.7,33.3A5.79,5.79,0,0,1,33,30a5.79,5.79,0,0,1,.7-3.3,2.75,2.75,0,0,1,4.4,0,5.79,5.79,0,0,1,.7,3.3,5.79,5.79,0,0,1-.7,3.3,2.75,2.75,0,0,1-4.4,0m3.3-.9a6.53,6.53,0,0,0,.4-2.4,4.94,4.94,0,0,0-.4-2.4c-.3-.5-.6-.8-1.1-.8a1.17,1.17,0,0,0-1.1.8,6.53,6.53,0,0,0-.4,2.4,4.94,4.94,0,0,0,.4,2.4c.3.5.6.8,1.1.8a1.17,1.17,0,0,0,1.1-.8" transform="translate(-3 -13.96)"/><path class="cls-3" d="M42.8,31.2H41.6v3H40.2V25.7h3a2.44,2.44,0,0,1,2,.7,3,3,0,0,1,.7,2,2.54,2.54,0,0,1-.4,1.6,2.73,2.73,0,0,1-1.2.9l2.1,3.2H44.7ZM41.6,30h1.6c.9,0,1.3-.5,1.3-1.5S44,27,43.1,27H41.6Z" transform="translate(-3 -13.96)"/></g></g></g></svg>