<?xml version="1.0" encoding="utf-8"?>
<!-- Generator: Adobe Illustrator 21.1.0, SVG Export Plug-In . SVG Version: 6.00 Build 0)  -->
<svg version="1.1" id="Layer_1" xmlns="http://www.w3.org/2000/svg" xmlns:xlink="http://www.w3.org/1999/xlink" x="0px" y="0px"
	 viewBox="0 0 60 60" style="enable-background:new 0 0 60 60;" xml:space="preserve">
<g>
	<g>
		<g>
			<path d="M39.9145851,31.3345413h-2.7089844l-0.5442924,2.8691063h-1.3169861l1.3196793-6.9564857h1.3156471l-0.5403404,2.8493462
				h2.7098808l0.5403404-2.8493462h1.3187904l-1.320137,6.9564857h-1.3169937L39.9145851,31.3345413z"/>
			<path d="M42.129303,33.0318069l3.9089432-3.2589092h-3.2239075l0.2166405-1.1442642h4.927742l-0.2223892,1.172287
				l-3.9088516,3.2589092h3.3488426l-0.2153816,1.1438179h-5.053936L42.129303,33.0318069z"/>
		</g>
	</g>
	<g>
		<g>
			<path d="M10.5059404,39.1396141l0.5771666-3.2304382h1.3227453c0.2455559,0,0.457346,0.0280228,0.6371603,0.082901
				c0.1807127,0.0547905,0.3281031,0.1323929,0.443428,0.2306519c0.1139832,0.0987091,0.1924791,0.2153778,0.2376566,0.3535156
				c0.046526,0.1363449,0.0535316,0.2898407,0.0241613,0.4586945c-0.0355625,0.1938248-0.1267328,0.3754349-0.2758293,0.5473442
				c-0.1491871,0.1688576-0.3447189,0.2995377-0.5868673,0.3951035l0.6174955,1.1622276h-0.8784151l-0.4828529-0.9863663h-0.6915941
				l-0.1758671,0.9863663H10.5059404z M12.0369673,37.6020432c0.1578989,0,0.292985-0.0171547,0.4061546-0.046524
				c0.11308-0.0311661,0.2064905-0.0745506,0.2819366-0.1280785c0.0758963-0.0565872,0.1350851-0.1197281,0.1746054-0.1898727
				c0.0420341-0.0705986,0.0688-0.146492,0.0841589-0.225441c0.0289211-0.1644554-0.0153589-0.296936-0.1306801-0.3938484
				c-0.1166773-0.0969086-0.3205624-0.1451416-0.616147-0.1451416h-0.4863663l-0.2017298,1.1289063H12.0369673z"/>
			<path d="M14.3841658,35.9091759h2.4454584l-0.1000557,0.5767136h-1.6801252l-0.1350851,0.7428741h1.6801243l-0.1013145,0.5741081
				h-1.6801243l-0.1349955,0.7612877h1.6787767l-0.1013126,0.5754547H13.807004L14.3841658,35.9091759z"/>
			<path d="M17.2602997,35.9091759h2.335701l-0.1043682,0.5767136h-1.5660553l-0.1329308,0.7428741h1.5656967l-0.1031094,0.5741081
				h-1.5651588l-0.2377472,1.3367424h-0.7691956L17.2602997,35.9091759z"/>
			<path d="M19.4596577,39.1396141l0.5753708-3.2304382h1.3227406c0.2446632,0,0.4556446,0.0280228,0.63941,0.082901
				c0.1789169,0.0547905,0.3258572,0.1323929,0.4411831,0.2306519c0.1139793,0.0987091,0.1942749,0.2153778,0.2376575,0.3535156
				c0.046524,0.1363449,0.0509262,0.2898407,0.023262,0.4586945c-0.0346699,0.1938248-0.127182,0.3754349-0.2744827,0.5473442
				c-0.1508923,0.1688576-0.3465099,0.2995377-0.5885735,0.3951035l0.6175003,1.1622276H21.577013l-0.483757-0.9863663h-0.6893482
				l-0.1763115,0.9863663H19.4596577z M20.9876308,37.6020432c0.1591568,0,0.2933445-0.0171547,0.4065151-0.046524
				c0.1139774-0.0311661,0.2082863-0.0745506,0.2841816-0.1280785c0.0732002-0.0565872,0.1337376-0.1197281,0.1745205-0.1898727
				c0.0404167-0.0705986,0.0675373-0.146492,0.0816383-0.225441c0.0298195-0.1644554-0.014101-0.296936-0.1307735-0.3938484
				c-0.1165829-0.0969086-0.319212-0.1451416-0.6148014-0.1451416h-0.4855518l-0.2025375,1.1289063H20.9876308z"/>
			<path d="M23.3360882,35.9091759h2.4454575l-0.1013145,0.5767136h-1.6770706l-0.1346359,0.7428741h1.6796761l-0.1031113,0.5741081
				h-1.6792259l-0.1359825,0.7612877h1.6802139l-0.1040096,0.5754547h-2.4471645L23.3360882,35.9091759z"/>
			<path d="M27.0252476,39.1439285c-0.3727417,0-0.6766853-0.0547905-0.914341-0.1661644
				c-0.2351379-0.1096649-0.4333687-0.2473526-0.5925255-0.4136047l0.7740459-0.4121704
				c0.0815544,0.1349983,0.1933765,0.2376556,0.3342152,0.3108559c0.1411877,0.0706863,0.3086987,0.1057167,0.4973145,0.1057167
				c0.2026291,0,0.3652878-0.0438309,0.4880676-0.1280785c0.1224213-0.0859566,0.1930237-0.182869,0.214035-0.2911873
				c0.0114079-0.0661926-0.0044003-0.1227798-0.0451775-0.1675072c-0.0407772-0.046524-0.0978127-0.0859566-0.1701145-0.1197243
				c-0.0732918-0.0324249-0.1604996-0.0617943-0.2587643-0.088562c-0.0987091-0.0241585-0.2004719-0.0504761-0.3056488-0.0745468
				c-0.1329288-0.0351181-0.26577-0.0732918-0.3978004-0.1127205c-0.1337395-0.0407753-0.2491493-0.0943069-0.3491211-0.16185
				c-0.0986195-0.067543-0.1732578-0.1490936-0.2249928-0.2504082c-0.0521832-0.098259-0.0648422-0.2223854-0.0381718-0.3701363
				c0.0223637-0.1262817,0.0772419-0.244751,0.1640968-0.3530693c0.0876656-0.1083183,0.2003822-0.2026253,0.3354664-0.2855263
				c0.1376915-0.0802078,0.2937984-0.1451454,0.4714527-0.1915779c0.1758614-0.0447311,0.3613358-0.067543,0.5569572-0.067543
				c0.1649055,0,0.3140011,0.0126648,0.4420815,0.0354767c0.1306839,0.0237122,0.2473564,0.0561371,0.350378,0.0969124
				c0.1040134,0.0407753,0.1960716,0.0899086,0.2785244,0.1478386c0.082901,0.0573921,0.1587963,0.1223297,0.2315483,0.1885262
				l-0.703001,0.3854942c-0.138588-0.2126884-0.3701363-0.3192101-0.6889896-0.3192101
				c-0.1889744,0-0.3389702,0.0350266-0.4477386,0.1039162c-0.1113739,0.0688896-0.1754131,0.1534996-0.1942749,0.2534637
				c-0.0101509,0.0618858,0.0026035,0.1166725,0.0407772,0.1587982c0.0377216,0.0421219,0.0929604,0.080204,0.1631069,0.1139755
				c0.0719452,0.0325127,0.1548462,0.0618858,0.2517586,0.0873032c0.0978107,0.0254173,0.2008324,0.0521812,0.3083439,0.0815506
				c0.132391,0.0351219,0.2688236,0.0745506,0.4004059,0.1197281c0.1328392,0.0434723,0.2525654,0.1013145,0.3525333,0.1714592
				c0.1026611,0.0706863,0.1820602,0.1561928,0.2355003,0.2575035c0.0526333,0.1013145,0.0667343,0.2293053,0.0386219,0.3801956
				c-0.0223637,0.1236763-0.0758953,0.244751-0.159605,0.3600769c-0.0851479,0.1179276-0.194725,0.2222939-0.3342113,0.3122025
				c-0.1350842,0.0903549-0.298193,0.1631966-0.4845638,0.21978C27.4572697,39.1185074,27.252037,39.1439285,27.0252476,39.1439285z
				"/>
			<path d="M31.4069004,37.8085327h-1.5827579l-0.2390099,1.3310814h-0.7683868l0.5767174-3.2304382h0.7683926l-0.2350578,1.3226433
				h1.5832176l0.2345982-1.3226433h0.7692871l-0.5776176,3.2304382h-0.7674885L31.4069004,37.8085327z"/>
			<path d="M33.9040947,39.1396141l0.5762672-3.2304382h1.3209457c0.2464561,0,0.458786,0.0280228,0.638958,0.082901
				c0.1816139,0.0547905,0.329361,0.1323929,0.4434319,0.2306519c0.1139755,0.0987091,0.1925659,0.2153778,0.2376556,0.3535156
				c0.046524,0.1363449,0.0548782,0.2898407,0.0237122,0.4586945c-0.0337715,0.1938248-0.1262856,0.3754349-0.2753792,0.5473442
				c-0.1478424,0.1688576-0.3451653,0.2995377-0.5868683,0.3951035l0.6162415,1.1622276h-0.8753662l-0.4855499-0.9863663H34.848793
				l-0.1772041,0.9863663H33.9040947z M35.4329643,37.6020432c0.1587067,0,0.2937927-0.0171547,0.4065132-0.046524
				c0.1127205-0.0311661,0.2070313-0.0745506,0.2828369-0.1280785c0.0758934-0.0565872,0.1350861-0.1197281,0.175869-0.1898727
				c0.0395164-0.0705986,0.0662766-0.146492,0.0816383-0.225441c0.0310745-0.1644554-0.0153618-0.296936-0.1306877-0.3938484
				c-0.1154137-0.0969086-0.3197479-0.1451416-0.616684-0.1451416h-0.4836655l-0.2026291,1.1289063H35.4329643z"/>
			<path d="M39.0971565,35.9091759h0.7748604l0.8925095,3.2304382H39.962368l-0.152153-0.5754547h-1.6011734l-0.3530731,0.5754547
				h-0.8052139L39.0971565,35.9091759z M38.5734291,37.9901428h1.0850868l-0.3250504-1.2253723L38.5734291,37.9901428z"/>
			<path d="M41.8407173,36.4858894h-1.1029549l0.1026611-0.5767136h2.9760094l-0.099968,0.5767136h-1.1087074l-0.4745026,2.6537247
				h-0.7696457L41.8407173,36.4858894z"/>
			<path d="M44.2032776,35.9091759h2.4485092l-0.1031075,0.5767136h-1.6796761l-0.1337395,0.7428741h1.6783295l-0.0995178,0.5741081
				h-1.6801262l-0.1364326,0.7612877h1.6784172l-0.1013107,0.5754547h-2.448513L44.2032776,35.9091759z"/>
		</g>
	</g>
	<g>
		<polygon points="10.6888084,22.5037613 11.6949425,24.8565998 13.0755262,24.8565998 11.4080658,34.2036476 
			13.9083128,34.2036476 15.9945917,22.5037613 		"/>
		<g>
			<g>
				<polygon points="44.7366104,23.6015015 31.8082085,22.6471977 30.9512558,23.6251221 42.0854721,25.1237144 				"/>
			</g>
			<g>
				<polygon points="16.5357418,20.8560734 45.8146019,22.9765568 49.4940605,20.8560734 				"/>
			</g>
		</g>
		<g>
			<path d="M16.2669182,29.3562393l-0.0355682,0.0407753l-0.3916035,2.2037449h4.8522968l-0.464447,2.6028881h2.4357586
				L23.1278,31.6007595h1.6603661l0.4113636-2.307663h-1.6595573l1.2648983-7.1327057l-2.1020851-0.1534958L16.2669182,29.3562393z
				 M21.1016102,29.2930965h-1.9831696l2.4870453-2.8098259L21.1016102,29.2930965z"/>
			<path d="M34.3382721,22.8484783l-2.5440788-0.1828671l-5.8684006,6.6906281l-0.0372734,0.0407753l-0.3920536,2.2037449h4.8526554
				l-0.4653454,2.6028881h2.4380054l0.4626465-2.6028881h1.6591072l0.412262-2.307663h-1.6595535L34.3382721,22.8484783z
				 M30.7600403,29.2930965h-1.9857788l2.4865952-2.8098259L30.7600403,29.2930965z"/>
		</g>
	</g>
</g>
</svg>
